<svg version="1.1" id="Layer_1" xmlns="http://www.w3.org/2000/svg" xmlns:xlink="http://www.w3.org/1999/xlink" x="0px" y="0px"
	 width="100%" viewBox="0 0 5000 5000" enable-background="new 0 0 5000 5000" xml:space="preserve">
<path fill="#ED8124" opacity="1.000000" stroke="none" 
	d="
M2093.003174,3470.481445 
	C2079.027100,3479.481201 2065.219482,3488.755615 2051.049316,3497.438477 
	C1909.666016,3584.074219 1768.224976,3670.615723 1626.783813,3757.156982 
	C1622.921265,3759.520264 1618.873657,3761.581543 1615.175415,3763.637207 
	C1611.085571,3760.472168 1614.202881,3758.520752 1615.238525,3756.550049 
	C1616.154419,3754.807129 1617.582275,3753.329346 1618.810181,3751.754883 
	C1650.759766,3710.783203 1682.667236,3669.778320 1714.674438,3628.851562 
	C1779.508179,3545.949219 1844.396973,3463.089600 1909.260498,3380.210205 
	C1910.901367,3378.113770 1912.710938,3376.114746 1914.088623,3373.854980 
	C1916.127441,3370.510742 1919.188965,3366.367188 1915.295166,3363.234375 
	C1912.588013,3361.056396 1908.019653,3360.270264 1904.360596,3360.449951 
	C1900.530273,3360.638184 1896.665527,3362.433105 1893.034424,3364.024414 
	C1836.278687,3388.896484 1777.471558,3408.368652 1719.466064,3429.941162 
	C1668.937622,3448.732422 1618.227295,3467.034668 1565.717529,3484.361816 
	C1562.170410,3479.581543 1560.714233,3475.875244 1558.799072,3472.423828 
	C1551.091797,3458.535156 1543.100098,3444.803467 1535.471924,3430.872070 
	C1507.334351,3379.484619 1487.836060,3324.601318 1470.504272,3268.884766 
	C1467.568359,3259.447021 1466.098999,3249.552979 1463.952026,3239.869873 
	C1471.087646,3233.971680 1478.017334,3227.801270 1485.392334,3222.219482 
	C1532.622559,3186.472656 1579.890747,3150.775391 1627.288086,3115.250732 
	C1639.528076,3106.076904 1652.462646,3097.830078 1664.702026,3088.655762 
	C1669.924805,3084.740967 1674.641357,3079.907227 1678.734619,3074.806152 
	C1682.051025,3070.673340 1678.873535,3065.042969 1673.625488,3064.710449 
	C1670.982178,3064.542725 1668.292847,3064.465088 1665.667480,3064.747314 
	C1601.520630,3071.643066 1537.379639,3078.591064 1473.239136,3085.544678 
	C1471.260254,3085.759033 1469.298706,3086.132568 1465.700684,3084.632324 
	C1461.752197,3061.779053 1459.125854,3040.799316 1459.818359,3019.480957 
	C1460.398804,3001.607422 1459.477295,2983.685547 1459.220825,2965.784912 
	C1493.214722,2950.568604 1527.140259,2935.197266 1561.218628,2920.172119 
	C1612.972290,2897.354004 1664.838257,2874.790771 1716.635010,2852.069580 
	C1720.891968,2850.202393 1725.135498,2848.211914 1729.116211,2845.829346 
	C1735.096558,2842.250000 1739.216675,2837.334961 1738.513672,2828.421143 
	C1734.768555,2826.963135 1730.716553,2824.831299 1726.401245,2823.789062 
	C1660.436646,2807.856201 1594.436523,2792.069824 1528.447754,2776.235840 
	C1522.626465,2774.838867 1516.827515,2773.348633 1509.561768,2769.694824 
	C1510.047119,2757.172607 1511.081543,2746.581787 1514.119385,2736.600342 
	C1520.442871,2715.824219 1527.906128,2695.396484 1534.727417,2674.768311 
	C1536.777344,2668.569092 1538.254150,2662.180420 1539.993530,2655.878418 
	C1547.738159,2654.125732 1555.426880,2652.059082 1563.236084,2650.668457 
	C1650.956543,2635.046143 1738.699463,2619.549561 1826.420044,2603.927979 
	C1831.621216,2603.001953 1836.990723,2601.981201 1841.752441,2599.831543 
	C1854.157349,2594.231201 1855.479736,2583.745117 1844.883057,2575.401855 
	C1824.495850,2559.349609 1803.827393,2543.655029 1783.383667,2527.673828 
	C1742.497803,2495.712891 1701.684814,2463.658936 1660.498535,2429.083740 
	C1663.138184,2420.717529 1665.463257,2414.440430 1669.219971,2409.187256 
	C1684.144165,2388.316406 1699.417603,2367.692383 1714.778076,2347.138916 
	C1719.614746,2340.667236 1723.474609,2333.975586 1724.086548,2325.762451 
	C1762.924805,2331.041748 1801.781250,2336.192627 1840.596680,2341.635254 
	C1883.376953,2347.634033 1926.120850,2353.893066 1968.877808,2360.057861 
	C1977.423828,2361.290039 1985.943115,2362.716309 1994.502686,2363.840576 
	C1999.322876,2364.473633 2003.640747,2363.168457 2007.332642,2359.739014 
	C2013.718872,2353.807129 2014.918457,2347.572510 2010.216309,2338.120117 
	C2001.928833,2321.459961 1993.164673,2305.037842 1984.744385,2288.442871 
	C1960.384766,2240.434082 1936.096802,2192.389404 1912.003296,2141.541016 
	C1916.668457,2127.312744 1923.486450,2118.001465 1933.648926,2110.671631 
	C1953.595093,2096.285156 1973.003540,2081.153076 1992.632812,2066.327637 
	C2003.484131,2058.131836 2015.470093,2052.742676 2029.154175,2051.548340 
	C2034.959473,2054.663818 2040.939819,2057.494629 2046.542480,2060.939697 
	C2091.763916,2088.745117 2136.915039,2116.664551 2182.082031,2144.558594 
	C2183.775391,2145.604492 2185.355469,2146.839844 2187.078125,2147.831055 
	C2197.785400,2153.993164 2208.295166,2149.337402 2210.658447,2137.025879 
	C2211.386475,2133.233154 2210.884521,2129.115967 2210.450684,2125.202148 
	C2204.167236,2068.498535 2197.786133,2011.805542 2191.461914,1955.106445 
	C2190.138672,1943.243408 2188.948486,1931.365479 2189.339111,1917.424316 
	C2197.879395,1912.926636 2204.901855,1910.800781 2211.654297,1908.020020 
	C2241.178955,1895.861572 2270.740234,1883.778198 2300.044678,1871.104492 
	C2311.930908,1865.963867 2324.008057,1863.332153 2336.844971,1863.672119 
	C2345.800781,1876.777710 2354.994629,1889.728027 2363.658691,1903.023804 
	C2377.798340,1924.722168 2391.531738,1946.685181 2405.589844,1968.437500 
	C2408.054688,1972.251587 2411.270996,1975.580444 2414.278564,1979.304565 
	C2425.624756,1976.982422 2430.129395,1969.441406 2431.740967,1959.706665 
	C2434.235352,1944.642334 2436.493408,1929.534790 2438.589111,1914.409180 
	C2442.052002,1889.416382 2445.305176,1864.394531 2450.765381,1837.708740 
	C2458.134033,1835.305908 2463.452881,1834.902588 2468.623047,1833.802246 
	C2518.607910,1823.166260 2568.504883,1812.285889 2619.446777,1806.717041 
	C2650.444336,1803.328369 2681.282471,1798.788818 2712.581299,1799.971802 
	C2716.420410,1821.493408 2720.484375,1842.977783 2724.043213,1864.545654 
	C2728.803467,1893.394775 2733.155029,1922.311157 2737.729736,1951.191284 
	C2738.353027,1955.127686 2739.181885,1959.035767 2740.037354,1962.930298 
	C2741.726318,1970.623535 2746.065186,1976.103882 2753.643555,1978.843750 
	C2760.734863,1978.092651 2763.005371,1972.013306 2766.153076,1967.133301 
	C2800.384033,1914.064697 2834.521484,1860.935669 2868.696777,1807.831055 
	C2870.135498,1805.595215 2871.693604,1803.436157 2876.038574,1800.612793 
	C2896.536621,1802.263672 2914.212402,1804.396606 2931.841797,1806.860107 
	C2952.754639,1809.782349 2973.627441,1812.989136 2994.517578,1816.072754 
	C2991.789795,1843.189941 2989.231201,1870.325439 2986.295654,1897.420166 
	C2981.566406,1941.069458 2976.646729,1984.698608 2971.696777,2028.323608 
	C2968.247314,2058.726318 2964.588379,2089.104980 2961.085205,2119.501709 
	C2960.552246,2124.123779 2960.163330,2128.780029 2960.049805,2133.428711 
	C2959.891846,2139.890137 2962.870850,2144.870117 2967.943115,2148.752686 
	C2971.376953,2151.380859 2975.042480,2152.458496 2979.046631,2150.439697 
	C2982.006836,2148.947021 2984.803711,2147.121826 2987.632812,2145.378906 
	C3113.418701,2067.883301 3239.201172,1990.382324 3364.973389,1912.864502 
	C3367.803223,1911.120483 3370.507324,1909.173096 3373.783691,1906.162354 
	C3374.297363,1905.004272 3374.050293,1904.614380 3374.050293,1904.614380 
	C3377.208008,1908.864746 3376.734131,1913.130249 3374.451416,1917.640259 
	C3366.657471,1933.039795 3359.073242,1948.545410 3351.261475,1963.935791 
	C3321.820801,2021.940552 3292.365479,2079.937988 3262.831787,2137.895508 
	C3235.409668,2191.709473 3207.880615,2245.468994 3178.369385,2299.352539 
	C3169.302002,2292.385010 3162.937256,2284.447998 3155.117920,2278.387939 
	C3094.986816,2231.785156 3028.107178,2197.699463 2955.903076,2174.402344 
	C2928.708252,2165.627930 2900.551514,2159.694580 2872.635498,2153.334717 
	C2840.784668,2146.077881 2808.199707,2141.448975 2775.775879,2140.638184 
	C2716.624268,2139.159180 2657.399902,2137.968750 2598.381348,2147.255371 
	C2548.244141,2155.144775 2498.626465,2164.681641 2450.287598,2180.038330 
	C2382.120117,2201.694336 2316.757812,2229.918213 2255.180664,2266.510254 
	C2235.143799,2278.416992 2214.933105,2290.147705 2195.738525,2303.323242 
	C2174.902344,2317.625732 2154.841064,2333.118164 2135.014404,2348.814697 
	C2108.410400,2369.877686 2082.498779,2391.800049 2058.326904,2415.680420 
	C2036.994019,2436.755859 2018.279297,2460.144531 1998.680054,2482.770508 
	C1970.649902,2515.129639 1946.171021,2549.993408 1924.732788,2586.872559 
	C1909.350220,2613.334473 1896.094360,2641.033203 1881.907593,2668.189697 
	C1868.603271,2693.656738 1858.565186,2720.502197 1848.892090,2747.469238 
	C1834.888672,2786.507568 1826.850952,2827.043457 1820.153687,2867.821045 
	C1816.707153,2888.805664 1813.078247,2909.971680 1812.382690,2931.149414 
	C1811.181763,2967.710449 1810.140503,3004.462158 1816.329590,3040.780273 
	C1820.802124,3067.025146 1825.193359,3093.351074 1831.368774,3119.223633 
	C1841.781006,3162.847168 1859.064941,3203.911377 1879.672363,3243.770020 
	C1904.034912,3290.891357 1934.821533,3333.438477 1970.621704,3372.143311 
	C2004.172974,3408.417480 2042.080078,3439.846436 2085.772217,3463.714844 
	C2088.577393,3465.247314 2090.610596,3468.193115 2093.003174,3470.481445 
z"/>
<path fill="#F08623" opacity="1.000000" stroke="none" 
	d="
M2094.345215,3469.973389 
	C2090.610596,3468.193115 2088.577393,3465.247314 2085.772217,3463.714844 
	C2042.080078,3439.846436 2004.172974,3408.417480 1970.621704,3372.143311 
	C1934.821533,3333.438477 1904.034912,3290.891357 1879.672363,3243.770020 
	C1859.064941,3203.911377 1841.781006,3162.847168 1831.368774,3119.223633 
	C1825.193359,3093.351074 1820.802124,3067.025146 1816.329590,3040.780273 
	C1810.140503,3004.462158 1811.181763,2967.710449 1812.382690,2931.149414 
	C1813.078247,2909.971680 1816.707153,2888.805664 1820.153687,2867.821045 
	C1826.850952,2827.043457 1834.888672,2786.507568 1848.892090,2747.469238 
	C1858.565186,2720.502197 1868.603271,2693.656738 1881.907593,2668.189697 
	C1896.094360,2641.033203 1909.350220,2613.334473 1924.732788,2586.872559 
	C1946.171021,2549.993408 1970.649902,2515.129639 1998.680054,2482.770508 
	C2018.279297,2460.144531 2036.994019,2436.755859 2058.326904,2415.680420 
	C2082.498779,2391.800049 2108.410400,2369.877686 2135.014404,2348.814697 
	C2154.841064,2333.118164 2174.902344,2317.625732 2195.738525,2303.323242 
	C2214.933105,2290.147705 2235.143799,2278.416992 2255.180664,2266.510254 
	C2316.757812,2229.918213 2382.120117,2201.694336 2450.287598,2180.038330 
	C2498.626465,2164.681641 2548.244141,2155.144775 2598.381348,2147.255371 
	C2657.399902,2137.968750 2716.624268,2139.159180 2775.775879,2140.638184 
	C2808.199707,2141.448975 2840.784668,2146.077881 2872.635498,2153.334717 
	C2900.551514,2159.694580 2928.708252,2165.627930 2955.903076,2174.402344 
	C3028.107178,2197.699463 3094.986816,2231.785156 3155.117920,2278.387939 
	C3162.937256,2284.447998 3169.302002,2292.385010 3177.540527,2300.373291 
	C3172.645508,2313.696777 3166.285400,2325.980469 3160.611816,2338.573486 
	C3158.840820,2342.503662 3157.605469,2347.534912 3158.425049,2351.598145 
	C3160.267578,2360.733643 3165.938477,2364.750244 3175.832275,2363.815186 
	C3188.937256,2362.576416 3201.931885,2360.187988 3214.983154,2358.360596 
	C3222.160645,2357.355713 3229.356934,2356.488525 3238.749023,2357.002930 
	C3247.471924,2365.884521 3254.529541,2372.921631 3260.412354,2380.832031 
	C3280.608154,2407.989014 3299.504639,2435.930176 3315.469238,2465.946045 
	C3325.785645,2485.341797 3334.848145,2505.105469 3342.541260,2525.595215 
	C3346.311768,2535.637207 3348.476562,2545.961914 3348.276367,2556.729004 
	C3338.279785,2565.272217 3328.283203,2573.815430 3317.576416,2582.965576 
	C3319.125000,2587.759277 3320.696289,2592.624268 3322.124268,2597.045410 
	C3335.806885,2604.718750 3350.970215,2603.771240 3366.512207,2609.873535 
	C3369.215820,2617.892334 3370.151123,2623.810791 3371.486572,2629.637451 
	C3379.542480,2664.792480 3382.871338,2700.521484 3383.875000,2736.457031 
	C3384.468994,2757.727295 3382.765137,2778.894043 3380.807373,2800.166748 
	C3378.419678,2826.112061 3374.208984,2851.647705 3369.476562,2877.113037 
	C3362.159668,2916.485596 3350.507324,2954.806152 3336.284424,2992.161377 
	C3325.640381,3020.117188 3314.262939,3048.057861 3300.160400,3074.369873 
	C3280.374756,3111.284912 3259.061768,3147.454346 3233.975342,3181.256104 
	C3215.720459,3205.852783 3197.021240,3230.042236 3176.861572,3253.093262 
	C3167.236816,3264.098633 3157.531494,3275.037842 3147.656006,3285.817871 
	C3142.262451,3291.705322 3136.733643,3297.533691 3130.751465,3302.804688 
	C3112.301514,3319.061035 3093.591309,3335.021973 3075.006104,3351.125244 
	C3057.401123,3366.379150 3040.116699,3382.059570 3019.018555,3392.595215 
	C3013.327637,3395.437012 3009.259033,3399.504395 3008.735840,3406.241699 
	C3007.235352,3407.675781 3005.734619,3409.109863 3002.077637,3411.401123 
	C2991.664551,3413.235107 2985.296143,3418.127441 2978.499268,3422.299316 
	C2958.136475,3434.797852 2938.075684,3447.891357 2917.067139,3459.212402 
	C2883.163818,3477.482422 2848.282471,3493.817139 2812.382568,3507.919678 
	C2798.085938,3513.536377 2783.549805,3517.902100 2768.317627,3519.896729 
	C2759.786865,3506.462646 2751.237793,3493.039795 2742.739014,3479.585693 
	C2740.609375,3476.214355 2738.894775,3472.556152 2736.553223,3469.348145 
	C2729.045898,3459.063477 2714.447266,3459.269531 2708.517578,3470.713867 
	C2703.058838,3481.249268 2698.720703,3492.642578 2695.746826,3504.138184 
	C2684.753906,3546.629150 2674.085693,3589.215332 2664.103271,3631.954102 
	C2637.180176,3747.219238 2610.690186,3862.585693 2583.928711,3977.888916 
	C2582.940186,3982.147949 2580.910645,3986.165527 2578.190674,3993.439941 
	C2570.986816,3968.370850 2564.643799,3946.707764 2558.537354,3924.977783 
	C2524.891846,3805.251221 2491.266357,3685.518555 2457.737549,3565.759033 
	C2452.897705,3548.471436 2448.269775,3531.107422 2444.214355,3513.623291 
	C2441.973633,3503.961914 2441.230713,3493.960449 2439.615967,3484.144531 
	C2438.261719,3475.911865 2431.649170,3471.827148 2423.552002,3473.811768 
	C2415.941895,3475.676514 2411.028809,3481.149414 2406.227783,3486.686768 
	C2390.533203,3504.789062 2374.943604,3522.982422 2359.297607,3541.126953 
	C2354.084961,3547.171875 2348.823486,3553.175049 2340.841064,3559.793457 
	C2329.553955,3560.000244 2322.115967,3562.353760 2317.847168,3570.246582 
	C2313.268066,3578.712891 2306.573242,3580.626465 2297.799805,3578.401611 
	C2261.190674,3569.118652 2224.284668,3560.910400 2189.067139,3546.788574 
	C2172.473633,3540.134521 2155.659424,3534.030518 2138.945312,3527.677490 
	C2144.646973,3504.675537 2150.336670,3481.670654 2156.060547,3458.674072 
	C2157.300293,3453.692627 2158.661865,3448.741455 2159.957764,3443.812744 
	C2152.914307,3437.217041 2145.876953,3439.006348 2136.543457,3440.381348 
	C2133.371338,3440.281738 2132.675293,3440.723633 2132.140869,3441.420654 
	C2130.322998,3443.944092 2129.004395,3447.178223 2126.600342,3448.867432 
	C2116.472656,3455.984619 2106.020752,3462.640625 2094.345215,3469.973389 
M2961.286621,2336.641602 
	C2935.256836,2322.812012 2907.604980,2312.935547 2879.476318,2304.658936 
	C2828.842773,2289.759521 2777.401855,2279.239502 2724.213867,2279.966064 
	C2708.219482,2280.184570 2692.206543,2280.412109 2676.224854,2279.912109 
	C2645.453857,2278.949463 2615.155762,2282.601074 2584.831055,2287.312500 
	C2507.775879,2299.283691 2434.763428,2323.857910 2364.841553,2357.754639 
	C2320.985352,2379.015381 2279.858154,2405.043213 2240.910889,2434.331543 
	C2223.904541,2447.120361 2206.715576,2460.023193 2191.611328,2474.905762 
	C2164.599854,2501.520996 2136.917725,2527.465088 2112.579590,2556.840576 
	C2080.971191,2594.991699 2053.535645,2635.682617 2030.336060,2679.344971 
	C2010.244019,2717.159180 1995.343140,2757.066650 1982.781738,2797.899658 
	C1969.384888,2841.448730 1964.404907,2886.447021 1960.114502,2931.541016 
	C1957.631714,2957.636475 1962.109863,2983.506836 1965.217896,3009.127441 
	C1969.870605,3047.481445 1978.617920,3085.294434 1994.233765,3120.991211 
	C2002.505249,3139.899414 2011.292236,3158.614014 2020.642334,3177.011230 
	C2036.738159,3208.682617 2057.811768,3237.107178 2081.614990,3263.234863 
	C2109.043213,3293.341797 2140.183350,3319.220947 2174.295654,3341.839355 
	C2215.184814,3368.950439 2259.032471,3389.695801 2305.365479,3404.712646 
	C2358.124512,3421.812500 2412.322998,3431.757568 2468.202637,3432.452881 
	C2488.053223,3432.699707 2507.788818,3433.034912 2527.672607,3432.515381 
	C2555.742432,3431.781982 2583.405518,3428.965088 2611.039551,3424.615967 
	C2688.023193,3412.500000 2761.131104,3388.271240 2830.760010,3353.590576 
	C2868.370605,3334.857178 2904.550049,3313.486816 2938.571533,3288.767334 
	C2969.274902,3266.458496 2999.185303,3243.079590 3025.942383,3216.002930 
	C3042.780762,3198.963135 3059.560547,3181.951660 3075.172363,3163.639404 
	C3092.510010,3143.302490 3108.426025,3122.072266 3123.804199,3100.326660 
	C3145.444824,3069.726562 3162.654541,3036.603760 3178.417725,3002.763672 
	C3187.970215,2982.256104 3197.349365,2961.464600 3204.303711,2939.989990 
	C3222.237793,2884.610840 3234.234863,2828.060547 3232.048828,2769.296143 
	C3231.702148,2759.977051 3231.916748,2750.633301 3232.018555,2741.302734 
	C3232.186035,2725.960938 3231.094238,2710.828125 3228.637207,2695.580078 
	C3218.672363,2633.741943 3200.137207,2575.114502 3166.897705,2521.575684 
	C3141.124268,2480.062012 3111.245117,2442.325439 3073.471924,2410.674805 
	C3039.566895,2382.265137 3003.995850,2356.896729 2961.286621,2336.641602 
z"/>
<path fill="#ED8124" opacity="1.000000" stroke="none" 
	d="
M3010.231934,3406.054688 
	C3009.259033,3399.504395 3013.327637,3395.437012 3019.018555,3392.595215 
	C3040.116699,3382.059570 3057.401123,3366.379150 3075.006104,3351.125244 
	C3093.591309,3335.021973 3112.301514,3319.061035 3130.751465,3302.804688 
	C3136.733643,3297.533691 3142.262451,3291.705322 3147.656006,3285.817871 
	C3157.531494,3275.037842 3167.236816,3264.098633 3176.861572,3253.093262 
	C3197.021240,3230.042236 3215.720459,3205.852783 3233.975342,3181.256104 
	C3259.061768,3147.454346 3280.374756,3111.284912 3300.160400,3074.369873 
	C3314.262939,3048.057861 3325.640381,3020.117188 3336.284424,2992.161377 
	C3350.507324,2954.806152 3362.159668,2916.485596 3369.476562,2877.113037 
	C3374.208984,2851.647705 3378.419678,2826.112061 3380.807373,2800.166748 
	C3382.765137,2778.894043 3384.468994,2757.727295 3383.875000,2736.457031 
	C3382.871338,2700.521484 3379.542480,2664.792480 3371.486572,2629.637451 
	C3370.151123,2623.810791 3369.215820,2617.892334 3368.038086,2610.432373 
	C3393.554932,2613.005371 3419.182373,2616.866699 3444.695312,2621.373779 
	C3524.641113,2635.496826 3604.542725,2649.871582 3684.464111,2664.133057 
	C3759.790771,2677.574463 3835.121826,2690.989990 3910.443359,2704.459961 
	C3912.359619,2704.802734 3914.185547,2705.650635 3916.005859,2706.247314 
	C3916.546875,2711.345703 3912.673828,2711.297852 3909.659668,2712.026611 
	C3860.514404,2723.911621 3811.372314,2735.811279 3762.206299,2747.611084 
	C3658.053467,2772.607422 3553.883057,2797.530518 3449.737061,2822.555664 
	C3444.052734,2823.921631 3437.626465,2823.579346 3432.508789,2829.645508 
	C3431.372314,2836.294678 3434.872559,2841.678467 3440.945801,2845.145020 
	C3447.853516,2849.087646 3455.190918,2852.320801 3462.483643,2855.540039 
	C3528.829102,2884.829834 3595.205811,2914.049561 3662.609375,2945.608398 
	C3656.274170,2982.312988 3643.495850,3014.985596 3632.055908,3048.091064 
	C3628.836670,3057.406250 3626.556396,3067.045654 3623.845459,3076.536377 
	C3599.449463,3074.425049 3575.036377,3072.487549 3550.663330,3070.138184 
	C3535.501709,3068.676758 3520.401367,3066.577637 3505.269043,3064.803467 
	C3503.299316,3064.572754 3501.200928,3064.138916 3499.344238,3064.575195 
	C3496.949707,3065.137939 3493.289307,3066.008545 3492.770020,3067.595703 
	C3491.867676,3070.353271 3492.041016,3074.270996 3493.433105,3076.772705 
	C3495.287842,3080.106201 3498.490234,3082.865967 3501.564453,3085.303711 
	C3506.229004,3089.003174 3511.231689,3092.287354 3516.177002,3095.619629 
	C3546.408936,3115.990967 3576.665771,3136.326172 3607.593262,3159.410400 
	C3608.180664,3170.245361 3606.042725,3177.556152 3602.238281,3184.907227 
	C3584.506836,3219.170410 3563.539307,3251.449463 3542.731201,3283.837646 
	C3521.177490,3317.386230 3496.787354,3348.854004 3471.992676,3380.021973 
	C3460.254395,3375.536865 3448.380371,3371.375000 3436.802246,3366.509033 
	C3394.582520,3348.766357 3352.472900,3330.761963 3310.287354,3312.937744 
	C3305.414551,3310.879150 3300.445557,3308.741211 3295.306396,3307.694336 
	C3288.014648,3306.209229 3280.649658,3306.114258 3274.822510,3314.869629 
	C3279.702637,3331.877686 3289.998535,3347.539307 3297.218262,3364.472168 
	C3304.503906,3381.558838 3312.984375,3398.136230 3320.936768,3414.938721 
	C3328.888916,3431.740723 3336.878662,3448.525146 3344.771240,3465.355225 
	C3352.661377,3482.180664 3360.451660,3499.052979 3367.713379,3518.522461 
	C3358.531738,3530.141113 3350.176758,3539.406006 3341.224854,3548.052734 
	C3335.114014,3553.955078 3328.109863,3558.923828 3321.610840,3564.434570 
	C3310.606445,3573.765625 3299.966797,3583.556396 3288.589600,3592.402100 
	C3284.096924,3595.894775 3278.039795,3597.375488 3272.695068,3599.772217 
	C3259.506104,3589.813477 3246.136963,3580.083252 3233.158447,3569.857422 
	C3168.087158,3518.586426 3103.131348,3467.168213 3038.093750,3415.853760 
	C3030.406006,3409.787354 3023.304199,3401.822266 3010.231934,3406.054688 
z"/>
<path fill="#EA7825" opacity="1.000000" stroke="none" 
	d="
M2712.712402,1798.222412 
	C2681.282471,1798.788818 2650.444336,1803.328369 2619.446777,1806.717041 
	C2568.504883,1812.285889 2518.607910,1823.166260 2468.623047,1833.802246 
	C2463.452881,1834.902588 2458.134033,1835.305908 2451.307861,1836.055908 
	C2453.697266,1805.116333 2457.473145,1774.127686 2461.674805,1743.196899 
	C2467.578857,1699.734497 2473.785156,1656.312988 2479.893311,1612.878418 
	C2481.281494,1603.005493 2482.796387,1593.150513 2486.279053,1581.505615 
	C2494.789795,1578.388306 2501.235352,1576.812378 2507.765137,1575.755981 
	C2547.603516,1569.312134 2587.429688,1562.779419 2627.328369,1556.727783 
	C2642.349121,1554.449463 2657.553223,1553.376953 2672.673584,1551.754761 
	C2674.931396,1562.701904 2677.583740,1573.584839 2679.382080,1584.607056 
	C2689.935547,1649.292603 2700.308105,1714.007812 2710.680420,1778.722778 
	C2711.623047,1784.604126 2712.132568,1790.554688 2712.712402,1798.222412 
z"/>
<path fill="#ED8124" opacity="1.000000" stroke="none" 
	d="
M2768.566406,3521.262695 
	C2783.549805,3517.902100 2798.085938,3513.536377 2812.382568,3507.919678 
	C2848.282471,3493.817139 2883.163818,3477.482422 2917.067139,3459.212402 
	C2938.075684,3447.891357 2958.136475,3434.797852 2978.499268,3422.299316 
	C2985.296143,3418.127441 2991.664551,3413.235107 3001.312012,3412.109863 
	C3002.739502,3444.564697 3002.973389,3477.168945 3002.771240,3509.770752 
	C3002.375244,3573.616943 3001.655029,3637.460938 3001.221680,3701.306885 
	C3000.806152,3762.511475 3000.596924,3823.717529 3000.248291,3884.922607 
	C3000.223389,3889.286133 2999.799316,3893.647217 2999.485352,3899.389648 
	C2992.868408,3895.902588 2991.264648,3890.578613 2988.687500,3886.335205 
	C2945.876709,3815.842529 2903.181152,3745.279541 2860.522461,3674.694580 
	C2829.905518,3624.034912 2799.381104,3573.319092 2768.566406,3521.262695 
z"/>
<path fill="#EA7825" opacity="1.000000" stroke="none" 
	d="
M1462.633057,3240.230469 
	C1466.098999,3249.552979 1467.568359,3259.447021 1470.504272,3268.884766 
	C1487.836060,3324.601318 1507.334351,3379.484619 1535.471924,3430.872070 
	C1543.100098,3444.803467 1551.091797,3458.535156 1558.799072,3472.423828 
	C1560.714233,3475.875244 1562.170410,3479.581543 1564.194580,3484.681641 
	C1527.903076,3500.041504 1491.265381,3513.919189 1454.602661,3527.731201 
	C1416.057861,3542.252197 1377.489136,3556.710205 1337.087402,3569.984131 
	C1309.402466,3519.580566 1283.325439,3470.515137 1264.671021,3417.934570 
	C1261.732666,3409.651855 1259.738403,3401.530273 1260.039795,3392.812256 
	C1267.821289,3386.673340 1275.487427,3380.381348 1283.402466,3374.419922 
	C1342.678955,3329.773682 1402.004150,3285.192627 1462.633057,3240.230469 
z"/>
<path fill="#EA7A25" opacity="1.000000" stroke="none" 
	d="
M3472.977051,3381.029297 
	C3496.787354,3348.854004 3521.177490,3317.386230 3542.731201,3283.837646 
	C3563.539307,3251.449463 3584.506836,3219.170410 3602.238281,3184.907227 
	C3606.042725,3177.556152 3608.180664,3170.245361 3608.363525,3160.480225 
	C3611.924316,3160.661621 3615.584717,3162.224609 3618.834229,3164.401611 
	C3666.038330,3196.032715 3713.210449,3227.712891 3760.335205,3259.462158 
	C3773.112305,3268.070312 3784.907227,3278.131348 3799.044434,3287.922852 
	C3795.914795,3298.376465 3793.063477,3306.655762 3788.690430,3314.033203 
	C3778.861084,3330.614990 3768.804688,3347.111816 3757.893311,3362.992188 
	C3733.423340,3398.605225 3708.375244,3433.821045 3683.562988,3469.198730 
	C3665.080078,3461.845703 3646.480713,3454.770264 3628.136230,3447.086426 
	C3576.688232,3425.537842 3525.345459,3403.737793 3472.977051,3381.029297 
z"/>
<path fill="#ED8124" opacity="1.000000" stroke="none" 
	d="
M3349.595703,2556.312988 
	C3348.476562,2545.961914 3346.311768,2535.637207 3342.541260,2525.595215 
	C3334.848145,2505.105469 3325.785645,2485.341797 3315.469238,2465.946045 
	C3299.504639,2435.930176 3280.608154,2407.989014 3260.412354,2380.832031 
	C3254.529541,2372.921631 3247.471924,2365.884521 3240.471436,2357.206543 
	C3252.377930,2353.681152 3264.704102,2350.967041 3277.163818,2349.182617 
	C3347.003174,2339.180420 3416.886719,2329.484863 3486.732178,2319.524414 
	C3547.350830,2310.879883 3607.937256,2302.009277 3668.544922,2293.287598 
	C3673.101562,2292.631836 3677.714600,2292.368896 3683.469482,2291.809814 
	C3682.716309,2298.895752 3677.460449,2300.986084 3673.771973,2303.885254 
	C3631.361328,2337.221924 3588.870117,2370.456055 3546.334961,2403.633789 
	C3481.222168,2454.422852 3416.057617,2505.145752 3349.595703,2556.312988 
z"/>
<path fill="#E66D25" opacity="1.000000" stroke="none" 
	d="
M3684.525146,3470.181152 
	C3708.375244,3433.821045 3733.423340,3398.605225 3757.893311,3362.992188 
	C3768.804688,3347.111816 3778.861084,3330.614990 3788.690430,3314.033203 
	C3793.063477,3306.655762 3795.914795,3298.376465 3799.792969,3289.084473 
	C3802.502686,3288.774658 3805.071533,3289.595947 3807.221436,3291.040283 
	C3867.200684,3331.333984 3927.137451,3371.690674 3987.493652,3414.508545 
	C3981.762207,3427.900146 3976.406738,3439.362305 3969.333008,3449.642090 
	C3943.864990,3486.653320 3917.817139,3523.265625 3891.988281,3560.028564 
	C3889.472412,3559.289062 3886.758301,3558.933838 3884.469238,3557.754395 
	C3830.087646,3529.727051 3772.639404,3508.714600 3716.665771,3484.334473 
	C3706.322998,3479.829102 3695.882568,3475.547852 3684.525146,3470.181152 
z"/>
<path fill="#CD3C28" opacity="1.000000" stroke="none" 
	d="
M4292.183594,3627.613281 
	C4300.459961,3633.128906 4308.972656,3638.323242 4316.978027,3644.207520 
	C4480.254883,3764.213379 4643.478516,3884.291504 4806.688965,4004.387939 
	C4813.393555,4009.321777 4820.364746,4014.001465 4825.040527,4021.753906 
	C4813.115234,4016.140137 4801.091797,4010.724121 4789.279297,4004.882324 
	C4687.140625,3954.367920 4585.068848,3903.718262 4482.917969,3853.228760 
	C4406.454590,3815.435791 4329.899414,3777.828857 4253.399414,3740.111084 
	C4246.828613,3736.871338 4240.360352,3733.423096 4233.067383,3727.612549 
	C4235.058105,3719.211426 4237.115723,3712.791260 4240.735840,3707.424805 
	C4249.253418,3694.797852 4258.854492,3682.902832 4267.385254,3670.284424 
	C4276.604004,3656.648193 4288.331055,3644.391602 4292.183594,3627.613281 
z"/>
<path fill="#ED8124" opacity="1.000000" stroke="none" 
	d="
M2138.067871,3528.843018 
	C2155.659424,3534.030518 2172.473633,3540.134521 2189.067139,3546.788574 
	C2224.284668,3560.910400 2261.190674,3569.118652 2297.799805,3578.401611 
	C2306.573242,3580.626465 2313.268066,3578.712891 2317.847168,3570.246582 
	C2322.115967,3562.353760 2329.553955,3560.000244 2339.712891,3560.440430 
	C2337.764404,3565.263672 2334.450684,3570.248047 2330.600830,3574.776367 
	C2241.763916,3679.276123 2152.875488,3783.732178 2063.952881,3888.158936 
	C2061.078369,3891.534912 2057.744385,3894.519531 2054.451172,3897.862793 
	C2053.323975,3896.250488 2052.895020,3895.821777 2052.696533,3895.304932 
	C2052.466797,3894.705322 2052.264648,3894.002197 2052.354248,3893.388672 
	C2052.738037,3890.762207 2053.101807,3888.121094 2053.707520,3885.540527 
	C2081.519775,3767.026123 2109.356445,3648.517822 2138.067871,3528.843018 
z"/>
<path fill="#E66D25" opacity="1.000000" stroke="none" 
	d="
M2672.858643,1550.020508 
	C2657.553223,1553.376953 2642.349121,1554.449463 2627.328369,1556.727783 
	C2587.429688,1562.779419 2547.603516,1569.312134 2507.765137,1575.755981 
	C2501.235352,1576.812378 2494.789795,1578.388306 2486.776855,1579.897217 
	C2489.309570,1549.850098 2493.145508,1519.597412 2497.484863,1489.416992 
	C2503.904297,1444.769165 2511.972168,1400.348633 2517.711914,1353.534180 
	C2531.441650,1349.615601 2543.100830,1347.135986 2554.874023,1345.450806 
	C2584.281738,1341.241455 2613.410645,1334.251709 2643.459717,1336.062866 
	C2644.491455,1343.930176 2646.108887,1351.771362 2646.458984,1359.668945 
	C2648.606934,1408.121216 2659.492676,1455.337158 2666.416504,1503.110474 
	C2668.599609,1518.172852 2670.833008,1533.228027 2672.858643,1550.020508 
z"/>
<path fill="#E66D25" opacity="1.000000" stroke="none" 
	d="
M1258.775635,3393.204346 
	C1259.738403,3401.530273 1261.732666,3409.651855 1264.671021,3417.934570 
	C1283.325439,3470.515137 1309.402466,3519.580566 1335.627563,3570.087402 
	C1325.652100,3575.706299 1315.374146,3580.218994 1304.920654,3584.279297 
	C1256.216187,3603.196289 1207.576782,3622.261719 1157.572266,3643.805176 
	C1147.099731,3638.504395 1143.197632,3630.797363 1139.499146,3623.000000 
	C1127.316895,3597.316162 1115.130005,3571.634033 1103.127686,3545.865967 
	C1098.332275,3535.571289 1095.362427,3524.764160 1096.063965,3513.222656 
	C1112.547607,3500.981201 1129.018433,3488.722168 1145.517700,3476.501709 
	C1182.841431,3448.856689 1220.179077,3421.230225 1258.775635,3393.204346 
z"/>
<path fill="#E05F26" opacity="1.000000" stroke="none" 
	d="
M3892.925781,3561.026611 
	C3917.817139,3523.265625 3943.864990,3486.653320 3969.333008,3449.642090 
	C3976.406738,3439.362305 3981.762207,3427.900146 3988.324463,3415.496582 
	C3991.079346,3415.215088 3993.570557,3416.189697 3995.730225,3417.653320 
	C4048.722900,3453.568115 4101.680664,3489.534424 4155.045898,3528.006836 
	C4152.500977,3536.357422 4150.128906,3542.577881 4146.510254,3547.960449 
	C4130.370605,3571.968262 4114.262207,3596.015869 4097.333008,3619.464600 
	C4089.733154,3629.991211 4083.296387,3641.949707 4071.087402,3648.458496 
	C4063.763428,3645.398926 4056.246094,3642.730469 4049.146484,3639.217529 
	C3997.338135,3613.581787 3945.614014,3587.776367 3892.925781,3561.026611 
z"/>
<path fill="#E05F26" opacity="1.000000" stroke="none" 
	d="
M1094.817627,3513.638184 
	C1095.362427,3524.764160 1098.332275,3535.571289 1103.127686,3545.865967 
	C1115.130005,3571.634033 1127.316895,3597.316162 1139.499146,3623.000000 
	C1143.197632,3630.797363 1147.099731,3638.504395 1156.151855,3643.962646 
	C1155.238159,3646.227295 1153.255737,3648.063232 1150.923340,3649.144287 
	C1087.215942,3678.677246 1023.472900,3708.133057 957.673035,3736.589355 
	C947.975708,3720.217529 939.915100,3705.051270 932.822021,3689.445312 
	C925.196533,3672.667725 918.479065,3655.477539 911.365356,3638.467285 
	C936.410889,3621.139404 961.362366,3603.673828 986.524536,3586.516846 
	C1022.125183,3562.242920 1057.881592,3538.197021 1094.817627,3513.638184 
z"/>
<path fill="#E77824" opacity="1.000000" stroke="none" 
	d="
M2336.504395,1862.297119 
	C2324.008057,1863.332153 2311.930908,1865.963867 2300.044678,1871.104492 
	C2270.740234,1883.778198 2241.178955,1895.861572 2211.654297,1908.020020 
	C2204.901855,1910.800781 2197.879395,1912.926636 2189.542969,1915.668213 
	C2185.455811,1896.234619 2182.517822,1876.520386 2180.216064,1856.732178 
	C2175.140869,1813.096802 2170.314697,1769.431885 2165.519043,1725.764526 
	C2160.148193,1676.858521 2154.923340,1627.936401 2149.620361,1578.888794 
	C2156.504883,1578.191772 2157.293213,1583.984985 2159.516602,1587.397827 
	C2190.413330,1634.821411 2221.121826,1682.367920 2251.810547,1729.926636 
	C2279.969482,1773.565063 2308.049316,1817.254761 2336.504395,1862.297119 
z"/>
<path fill="#DA5128" opacity="1.000000" stroke="none" 
	d="
M910.009033,3638.887207 
	C918.479065,3655.477539 925.196533,3672.667725 932.822021,3689.445312 
	C939.915100,3705.051270 947.975708,3720.217529 956.233826,3737.015625 
	C926.336182,3752.867432 895.879639,3767.419678 865.278931,3781.662598 
	C817.851135,3803.737305 770.324707,3825.600586 721.087769,3846.391602 
	C716.040039,3838.892334 712.917419,3832.458008 709.413574,3826.238281 
	C701.965881,3813.018311 695.905457,3799.402832 695.903870,3783.831543 
	C705.054565,3777.264893 714.050964,3770.469727 723.380981,3764.168701 
	C785.098206,3722.489014 846.887085,3680.915039 910.009033,3638.887207 
z"/>
<path fill="#E77824" opacity="1.000000" stroke="none" 
	d="
M1457.728027,2966.137451 
	C1459.477295,2983.685547 1460.398804,3001.607422 1459.818359,3019.480957 
	C1459.125854,3040.799316 1461.752197,3061.779053 1464.088623,3084.460449 
	C1437.079956,3089.257324 1410.073486,3092.595947 1383.025879,3095.557861 
	C1335.470093,3100.765625 1287.892578,3105.774658 1240.317993,3110.807617 
	C1200.013184,3115.071777 1159.702515,3119.282227 1119.384644,3123.419922 
	C1115.709473,3123.797119 1111.962036,3123.470215 1107.012695,3123.470215 
	C1110.323853,3116.752686 1115.994263,3116.132812 1120.487915,3114.145996 
	C1197.667358,3080.024414 1274.886597,3045.993164 1352.127319,3012.010742 
	C1386.795410,2996.758545 1421.530396,2981.658691 1457.728027,2966.137451 
z"/>
<path fill="#DA5128" opacity="1.000000" stroke="none" 
	d="
M4072.017578,3649.521240 
	C4083.296387,3641.949707 4089.733154,3629.991211 4097.333008,3619.464600 
	C4114.262207,3596.015869 4130.370605,3571.968262 4146.510254,3547.960449 
	C4150.128906,3542.577881 4152.500977,3536.357422 4155.775879,3529.123291 
	C4158.980469,3529.277344 4162.090332,3530.512695 4164.697266,3532.430908 
	C4206.738281,3563.369141 4248.715332,3594.394287 4291.445312,3626.506348 
	C4288.331055,3644.391602 4276.604004,3656.648193 4267.385254,3670.284424 
	C4258.854492,3682.902832 4249.253418,3694.797852 4240.735840,3707.424805 
	C4237.115723,3712.791260 4235.058105,3719.211426 4232.150391,3726.597412 
	C4226.505859,3725.811768 4220.833984,3723.922363 4215.523926,3721.299316 
	C4167.961914,3697.801514 4120.464355,3674.173340 4072.017578,3649.521240 
z"/>
<path fill="#E05F26" opacity="1.000000" stroke="none" 
	d="
M2643.722412,1334.241211 
	C2613.410645,1334.251709 2584.281738,1341.241455 2554.874023,1345.450806 
	C2543.100830,1347.135986 2531.441650,1349.615601 2518.141846,1351.899170 
	C2518.087646,1328.216187 2519.401855,1304.350952 2521.212402,1280.523315 
	C2523.428223,1251.361084 2526.003906,1222.225708 2528.542480,1193.088989 
	C2529.407715,1183.157959 2530.631104,1173.258301 2533.761963,1161.638428 
	C2555.512695,1156.989746 2575.160889,1153.808350 2594.884521,1151.196655 
	C2606.016113,1149.722656 2617.271729,1149.186768 2628.471680,1148.228271 
	C2629.347168,1152.744507 2630.674316,1157.225708 2631.027832,1161.782471 
	C2634.258057,1203.447388 2637.305420,1245.126465 2640.435303,1286.799194 
	C2641.577637,1302.009033 2642.799561,1317.213013 2643.722412,1334.241211 
z"/>
<path fill="#EA7A25" opacity="1.000000" stroke="none" 
	d="
M3625.217285,3077.360107 
	C3626.556396,3067.045654 3628.836670,3057.406250 3632.055908,3048.091064 
	C3643.495850,3014.985596 3656.274170,2982.312988 3663.806152,2946.418457 
	C3684.599609,2953.682861 3705.312500,2962.272217 3725.847656,2971.268555 
	C3764.564453,2988.230469 3803.178467,3005.426270 3842.863770,3025.014648 
	C3842.173828,3045.285645 3834.335693,3061.249268 3829.014404,3077.968018 
	C3826.865967,3084.718018 3825.614014,3091.753662 3823.954102,3098.659180 
	C3799.605957,3096.328369 3775.239014,3094.177734 3750.913818,3091.626465 
	C3709.458496,3087.278320 3668.029297,3082.678223 3625.217285,3077.360107 
z"/>
<path fill="#E77824" opacity="1.000000" stroke="none" 
	d="
M2028.328857,2050.436768 
	C2015.470093,2052.742676 2003.484131,2058.131836 1992.632812,2066.327637 
	C1973.003540,2081.153076 1953.595093,2096.285156 1933.648926,2110.671631 
	C1923.486450,2118.001465 1916.668457,2127.312744 1911.810791,2140.173828 
	C1903.491455,2127.058105 1895.249756,2112.663574 1887.741699,2097.895996 
	C1857.581665,2038.573364 1827.624146,1979.147827 1797.698486,1919.706543 
	C1796.043335,1916.419067 1792.772949,1913.464722 1794.161133,1909.144043 
	C1794.763916,1908.774170 1795.516357,1908.062622 1795.749634,1908.204590 
	C1873.024414,1955.205933 1950.263672,2002.266235 2028.328857,2050.436768 
z"/>
<path fill="#E77824" opacity="1.000000" stroke="none" 
	d="
M3273.366211,3600.896484 
	C3278.039795,3597.375488 3284.096924,3595.894775 3288.589600,3592.402100 
	C3299.966797,3583.556396 3310.606445,3573.765625 3321.610840,3564.434570 
	C3328.109863,3558.923828 3335.114014,3553.955078 3341.224854,3548.052734 
	C3350.176758,3539.406006 3358.531738,3530.141113 3367.895508,3519.932861 
	C3373.219971,3527.527344 3378.082764,3536.191162 3382.314209,3545.152588 
	C3414.682129,3613.702148 3446.933594,3682.306641 3479.191162,3750.908447 
	C3480.828369,3754.389893 3482.189453,3758.000977 3483.497803,3761.119141 
	C3480.290527,3765.512695 3478.290527,3762.220459 3476.323975,3761.312012 
	C3474.551270,3760.493896 3473.062500,3759.036621 3471.494873,3757.802490 
	C3444.310791,3736.396240 3417.120850,3714.997070 3389.958496,3693.563232 
	C3351.306885,3663.063232 3312.676758,3632.536377 3273.366211,3600.896484 
z"/>
<path fill="#E77824" opacity="1.000000" stroke="none" 
	d="
M1538.277344,2655.705566 
	C1538.254150,2662.180420 1536.777344,2668.569092 1534.727417,2674.768311 
	C1527.906128,2695.396484 1520.442871,2715.824219 1514.119385,2736.600342 
	C1511.081543,2746.581787 1510.047119,2757.172607 1508.087158,2769.067383 
	C1481.557007,2764.543213 1455.005005,2758.606934 1428.541138,2752.300781 
	C1372.956177,2739.054932 1317.414673,2725.626465 1261.868042,2712.219971 
	C1258.953247,2711.516357 1256.156738,2710.322998 1252.903076,2709.221191 
	C1254.446533,2707.088867 1255.017944,2705.409424 1255.864380,2705.256836 
	C1346.116089,2689.012207 1436.387695,2672.876465 1526.664062,2656.768066 
	C1529.932495,2656.185059 1533.260742,2655.936768 1538.277344,2655.705566 
z"/>
<path fill="#DA5128" opacity="1.000000" stroke="none" 
	d="
M2628.758057,1146.580078 
	C2617.271729,1149.186768 2606.016113,1149.722656 2594.884521,1151.196655 
	C2575.160889,1153.808350 2555.512695,1156.989746 2534.192139,1159.998291 
	C2533.979736,1137.552490 2535.066162,1115.013306 2536.910645,1092.536255 
	C2540.334473,1050.823486 2544.201416,1009.147156 2549.910645,965.744995 
	C2557.150879,963.388184 2562.365479,962.750671 2567.577637,962.094177 
	C2583.205566,960.125916 2598.832520,958.150330 2614.459961,956.177612 
	C2615.750488,969.388916 2617.303223,982.580811 2618.285156,995.815002 
	C2621.972412,1045.513184 2625.473389,1095.225098 2628.758057,1146.580078 
z"/>
<path fill="#CD3C28" opacity="1.000000" stroke="none" 
	d="
M694.553406,3784.146240 
	C695.905457,3799.402832 701.965881,3813.018311 709.413574,3826.238281 
	C712.917419,3832.458008 716.040039,3838.892334 719.655884,3846.617676 
	C714.164307,3851.127197 708.492920,3854.551270 702.519531,3857.324707 
	C589.763916,3909.671631 476.975220,3961.947510 364.182159,4014.213623 
	C357.585785,4017.270264 350.893250,4020.119141 343.160645,4021.664795 
	C347.355011,4018.431885 351.388367,4014.960693 355.767548,4012.001221 
	C442.273956,3953.539307 528.810669,3895.122070 615.364929,3836.731201 
	C641.273865,3819.252930 667.255005,3801.881348 694.553406,3784.146240 
z"/>
<path fill="#E77824" opacity="1.000000" stroke="none" 
	d="
M2995.038086,1814.443481 
	C2973.627441,1812.989136 2952.754639,1809.782349 2931.841797,1806.860107 
	C2914.212402,1804.396606 2896.536621,1802.263672 2877.154785,1799.884277 
	C2876.825928,1796.809082 2877.900635,1793.625366 2879.668213,1790.889282 
	C2923.630127,1722.839966 2967.663086,1654.836426 3011.695557,1586.832642 
	C3013.494385,1584.054321 3015.409180,1581.350830 3017.246338,1578.647461 
	C3021.855713,1580.436035 3020.608887,1584.132690 3020.299561,1587.147705 
	C3017.181152,1617.523438 3014.036377,1647.897095 3010.686523,1678.248047 
	C3005.734619,1723.113525 3000.609863,1767.959717 2995.038086,1814.443481 
z"/>
<path fill="#CD3C28" opacity="1.000000" stroke="none" 
	d="
M2614.659668,954.418579 
	C2598.832520,958.150330 2583.205566,960.125916 2567.577637,962.094177 
	C2562.365479,962.750671 2557.150879,963.388184 2550.269531,964.067261 
	C2550.201172,940.236511 2551.539307,916.351807 2553.458984,892.513977 
	C2556.714600,852.080811 2560.366211,811.679565 2563.798340,771.260498 
	C2568.749512,712.949768 2573.664551,654.635986 2578.566650,596.321106 
	C2579.542969,584.704468 2580.392822,573.077209 2583.074463,561.377136 
	C2584.327148,569.823425 2586.057129,578.230713 2586.750488,586.722717 
	C2589.889160,625.160828 2592.699951,663.625671 2595.694824,702.075684 
	C2599.360352,749.139221 2603.160400,796.192322 2606.772949,843.259888 
	C2609.571533,879.718567 2612.171387,916.192444 2614.659668,954.418579 
z"/>
<path fill="#E77824" opacity="1.000000" stroke="none" 
	d="
M1722.491699,2325.166992 
	C1723.474609,2333.975586 1719.614746,2340.667236 1714.778076,2347.138916 
	C1699.417603,2367.692383 1684.144165,2388.316406 1669.219971,2409.187256 
	C1665.463257,2414.440430 1663.138184,2420.717529 1659.789551,2427.995117 
	C1654.497559,2426.117920 1649.363525,2423.036133 1644.676514,2419.381104 
	C1596.351685,2381.695068 1548.070557,2343.952881 1499.873413,2306.103516 
	C1495.416260,2302.603271 1489.786987,2299.961670 1486.549805,2292.001465 
	C1527.181396,2296.107178 1565.636475,2302.670898 1604.240356,2307.990723 
	C1643.148682,2313.352295 1682.013184,2319.031738 1722.491699,2325.166992 
z"/>
<path fill="#E66D25" opacity="1.000000" stroke="none" 
	d="
M3825.600342,3099.121582 
	C3825.614014,3091.753662 3826.865967,3084.718018 3829.014404,3077.968018 
	C3834.335693,3061.249268 3842.173828,3045.285645 3843.947266,3025.927490 
	C3848.968018,3026.097656 3854.071777,3027.529785 3858.879150,3029.638184 
	C3921.468262,3057.094482 3984.023438,3084.627441 4046.558594,3112.206543 
	C4052.419678,3114.791016 4058.085205,3117.818604 4064.106689,3120.770508 
	C4060.520996,3125.967773 4056.317871,3123.869873 4052.906738,3123.534668 
	C4023.853271,3120.680176 3994.825195,3117.564209 3965.794434,3114.482422 
	C3932.801270,3110.980225 3899.812500,3107.440186 3866.823730,3103.899902 
	C3853.628906,3102.484131 3840.438721,3101.023926 3825.600342,3099.121582 
z"/>
<path fill="#E05F26" opacity="1.000000" stroke="none" 
	d="
M2132.731934,3441.304199 
	C2132.675293,3440.723633 2133.371338,3440.281738 2134.831055,3440.114502 
	C2134.804932,3440.635986 2134.101318,3440.987061 2132.731934,3441.304199 
z"/>
<path fill="#ED8124" opacity="1.000000" stroke="none" 
	d="
M3374.234863,1904.783936 
	C3374.432617,1905.020386 3374.593994,1905.614990 3374.982178,1905.893677 
	C3375.341309,1906.151367 3375.943604,1906.071045 3376.438721,1906.139526 
	C3376.225586,1906.520630 3376.012451,1906.901733 3375.799316,1907.282837 
	C3375.671875,1906.772827 3375.544434,1906.262695 3374.733643,1905.183594 
	C3374.050293,1904.614380 3374.297363,1905.004272 3374.234863,1904.783936 
z"/>
<path fill="#F18C21" opacity="1.000000" stroke="none" 
	d="
M2962.623047,2337.310303 
	C3003.995850,2356.896729 3039.566895,2382.265137 3073.471924,2410.674805 
	C3111.245117,2442.325439 3141.124268,2480.062012 3166.897705,2521.575684 
	C3200.137207,2575.114502 3218.672363,2633.741943 3228.637207,2695.580078 
	C3231.094238,2710.828125 3232.186035,2725.960938 3232.018555,2741.302734 
	C3231.916748,2750.633301 3231.702148,2759.977051 3232.048828,2769.296143 
	C3234.234863,2828.060547 3222.237793,2884.610840 3204.303711,2939.989990 
	C3197.349365,2961.464600 3187.970215,2982.256104 3178.417725,3002.763672 
	C3162.654541,3036.603760 3145.444824,3069.726562 3123.804199,3100.326660 
	C3108.426025,3122.072266 3092.510010,3143.302490 3075.172363,3163.639404 
	C3059.560547,3181.951660 3042.780762,3198.963135 3025.942383,3216.002930 
	C2999.185303,3243.079590 2969.274902,3266.458496 2938.571533,3288.767334 
	C2904.550049,3313.486816 2868.370605,3334.857178 2830.760010,3353.590576 
	C2761.131104,3388.271240 2688.023193,3412.500000 2611.039551,3424.615967 
	C2583.405518,3428.965088 2555.742432,3431.781982 2527.672607,3432.515381 
	C2507.788818,3433.034912 2488.053223,3432.699707 2468.202637,3432.452881 
	C2412.322998,3431.757568 2358.124512,3421.812500 2305.365479,3404.712646 
	C2259.032471,3389.695801 2215.184814,3368.950439 2174.295654,3341.839355 
	C2140.183350,3319.220947 2109.043213,3293.341797 2081.614990,3263.234863 
	C2057.811768,3237.107178 2036.738159,3208.682617 2020.642334,3177.011230 
	C2011.292236,3158.614014 2002.505249,3139.899414 1994.233765,3120.991211 
	C1978.617920,3085.294434 1969.870605,3047.481445 1965.217896,3009.127441 
	C1962.109863,2983.506836 1957.631714,2957.636475 1960.114502,2931.541016 
	C1964.404907,2886.447021 1969.384888,2841.448730 1982.781738,2797.899658 
	C1995.343140,2757.066650 2010.244019,2717.159180 2030.336060,2679.344971 
	C2053.535645,2635.682617 2080.971191,2594.991699 2112.579590,2556.840576 
	C2136.917725,2527.465088 2164.599854,2501.520996 2191.611328,2474.905762 
	C2206.715576,2460.023193 2223.904541,2447.120361 2240.910889,2434.331543 
	C2279.858154,2405.043213 2320.985352,2379.015381 2364.841553,2357.754639 
	C2434.763428,2323.857910 2507.775879,2299.283691 2584.831055,2287.312500 
	C2615.155762,2282.601074 2645.453857,2278.949463 2676.224854,2279.912109 
	C2692.206543,2280.412109 2708.219482,2280.184570 2724.213867,2279.966064 
	C2777.401855,2279.239502 2828.842773,2289.759521 2879.476318,2304.658936 
	C2907.604980,2312.935547 2935.256836,2322.812012 2962.623047,2337.310303 
M2929.991943,3180.008545 
	C2939.569824,3171.762451 2949.524902,3163.911377 2958.648438,3155.189697 
	C2979.382324,3135.369385 2997.464355,3113.154053 3015.107422,3090.607178 
	C3056.195068,3038.100098 3086.354736,2979.764404 3107.121094,2916.524414 
	C3119.031006,2880.256348 3125.792725,2842.852539 3127.687988,2804.845459 
	C3129.111572,2776.294434 3128.987305,2747.600342 3123.900146,2719.171387 
	C3119.434082,2694.213623 3115.184570,2669.125000 3106.022949,2645.469727 
	C3096.894775,2621.900391 3086.403076,2598.872070 3072.712158,2577.358398 
	C3048.260010,2538.934326 3020.826416,2503.198242 2984.426270,2475.213623 
	C2936.459961,2438.337158 2884.668701,2408.744629 2825.677979,2393.183350 
	C2786.938965,2382.963867 2747.833984,2375.262939 2707.474121,2375.948242 
	C2689.480713,2376.254150 2671.461670,2376.484131 2653.481689,2375.904053 
	C2609.673584,2374.491455 2567.060303,2382.509521 2525.339111,2394.077148 
	C2465.430908,2410.686768 2408.064941,2433.913818 2354.740967,2466.549561 
	C2317.113037,2489.578613 2282.016602,2515.941162 2249.137207,2545.177002 
	C2226.726562,2565.104248 2206.711670,2587.513672 2187.816162,2610.818359 
	C2145.003174,2663.621582 2112.375977,2722.140381 2090.610596,2786.565918 
	C2085.285889,2802.327148 2080.165283,2818.312256 2076.913086,2834.586670 
	C2070.514648,2866.606689 2066.017334,2898.921143 2067.898193,2931.811279 
	C2068.543945,2943.106934 2067.924805,2954.471680 2068.044434,2965.802734 
	C2068.100586,2971.125732 2068.050537,2976.521973 2068.877686,2981.753662 
	C2075.773682,3025.377930 2086.492188,3067.645020 2107.316895,3107.238770 
	C2133.045410,3156.155273 2164.674072,3199.525391 2208.009033,3234.780273 
	C2245.759277,3265.491211 2287.506348,3288.889404 2332.028809,3306.690430 
	C2381.774658,3326.579834 2434.071289,3337.145996 2488.183594,3336.042725 
	C2502.176758,3335.757324 2516.181152,3336.049561 2530.179932,3335.988770 
	C2554.139404,3335.884766 2578.148682,3337.075439 2601.870117,3332.059570 
	C2625.318359,3327.101562 2649.328613,3324.166748 2672.245361,3317.453857 
	C2727.333496,3301.318359 2780.694824,3281.008301 2830.438232,3251.351807 
	C2864.939209,3230.782959 2897.371094,3207.806885 2929.991943,3180.008545 
z"/>
<path fill="#F3921F" opacity="1.000000" stroke="none" 
	d="
M2928.983154,3181.006836 
	C2897.371094,3207.806885 2864.939209,3230.782959 2830.438232,3251.351807 
	C2780.694824,3281.008301 2727.333496,3301.318359 2672.245361,3317.453857 
	C2649.328613,3324.166748 2625.318359,3327.101562 2601.870117,3332.059570 
	C2578.148682,3337.075439 2554.139404,3335.884766 2530.179932,3335.988770 
	C2516.181152,3336.049561 2502.176758,3335.757324 2488.183594,3336.042725 
	C2434.071289,3337.145996 2381.774658,3326.579834 2332.028809,3306.690430 
	C2287.506348,3288.889404 2245.759277,3265.491211 2208.009033,3234.780273 
	C2164.674072,3199.525391 2133.045410,3156.155273 2107.316895,3107.238770 
	C2086.492188,3067.645020 2075.773682,3025.377930 2068.877686,2981.753662 
	C2068.050537,2976.521973 2068.100586,2971.125732 2068.044434,2965.802734 
	C2067.924805,2954.471680 2068.543945,2943.106934 2067.898193,2931.811279 
	C2066.017334,2898.921143 2070.514648,2866.606689 2076.913086,2834.586670 
	C2080.165283,2818.312256 2085.285889,2802.327148 2090.610596,2786.565918 
	C2112.375977,2722.140381 2145.003174,2663.621582 2187.816162,2610.818359 
	C2206.711670,2587.513672 2226.726562,2565.104248 2249.137207,2545.177002 
	C2282.016602,2515.941162 2317.113037,2489.578613 2354.740967,2466.549561 
	C2408.064941,2433.913818 2465.430908,2410.686768 2525.339111,2394.077148 
	C2567.060303,2382.509521 2609.673584,2374.491455 2653.481689,2375.904053 
	C2671.461670,2376.484131 2689.480713,2376.254150 2707.474121,2375.948242 
	C2747.833984,2375.262939 2786.938965,2382.963867 2825.677979,2393.183350 
	C2884.668701,2408.744629 2936.459961,2438.337158 2984.426270,2475.213623 
	C3020.826416,2503.198242 3048.260010,2538.934326 3072.712158,2577.358398 
	C3086.403076,2598.872070 3096.894775,2621.900391 3106.022949,2645.469727 
	C3115.184570,2669.125000 3119.434082,2694.213623 3123.900146,2719.171387 
	C3128.987305,2747.600342 3129.111572,2776.294434 3127.687988,2804.845459 
	C3125.792725,2842.852539 3119.031006,2880.256348 3107.121094,2916.524414 
	C3086.354736,2979.764404 3056.195068,3038.100098 3015.107422,3090.607178 
	C2997.464355,3113.154053 2979.382324,3135.369385 2958.648438,3155.189697 
	C2949.524902,3163.911377 2939.569824,3171.762451 2928.983154,3181.006836 
M3055.972900,2774.811768 
	C3051.754395,2732.932129 3044.956787,2691.895508 3027.077148,2653.003906 
	C3010.166504,2616.219482 2988.191162,2583.208740 2960.145020,2554.402832 
	C2923.888672,2517.164062 2881.208252,2489.139160 2832.570068,2470.572998 
	C2781.097900,2450.925293 2728.038574,2439.288818 2672.634033,2439.976562 
	C2652.667969,2440.224609 2632.854004,2440.717529 2612.894531,2443.352295 
	C2578.414551,2447.903076 2544.675293,2455.147217 2511.389893,2464.884277 
	C2475.347168,2475.427734 2442.118408,2492.500732 2408.934814,2509.596680 
	C2389.380127,2519.671387 2370.262207,2530.526367 2353.031250,2544.385498 
	C2340.070068,2554.810547 2327.235352,2565.406250 2314.006104,2575.482178 
	C2282.988525,2599.107178 2257.903564,2628.364990 2234.063721,2658.832275 
	C2213.856689,2684.656738 2197.197510,2712.683350 2182.939209,2742.156982 
	C2155.289062,2799.313232 2138.930176,2859.009521 2139.784180,2923.148682 
	C2140.377197,2967.673584 2147.721191,3010.523682 2164.597168,3051.758057 
	C2177.845947,3084.128906 2195.488037,3114.061279 2218.677490,3139.996826 
	C2244.439697,3168.810059 2273.200928,3194.271240 2306.899658,3214.384033 
	C2364.902588,3249.002441 2427.829102,3266.625732 2494.383545,3271.535156 
	C2535.607178,3274.576172 2576.874756,3271.702637 2617.634033,3263.484375 
	C2645.111816,3257.943848 2672.225830,3251.137451 2698.757080,3242.150391 
	C2727.863770,3232.291260 2755.423340,3218.881348 2782.625488,3204.698975 
	C2815.869873,3187.366455 2847.387451,3166.902588 2874.973633,3141.901123 
	C2904.001953,3115.592773 2932.180420,3088.109619 2957.178467,3057.526367 
	C2987.519043,3020.406982 3009.307861,2978.465576 3027.258789,2934.716553 
	C3047.656250,2885.005371 3058.005615,2832.780518 3055.972900,2774.811768 
z"/>
<path fill="#F4961D" opacity="1.000000" stroke="none" 
	d="
M3055.982910,2776.712891 
	C3058.005615,2832.780518 3047.656250,2885.005371 3027.258789,2934.716553 
	C3009.307861,2978.465576 2987.519043,3020.406982 2957.178467,3057.526367 
	C2932.180420,3088.109619 2904.001953,3115.592773 2874.973633,3141.901123 
	C2847.387451,3166.902588 2815.869873,3187.366455 2782.625488,3204.698975 
	C2755.423340,3218.881348 2727.863770,3232.291260 2698.757080,3242.150391 
	C2672.225830,3251.137451 2645.111816,3257.943848 2617.634033,3263.484375 
	C2576.874756,3271.702637 2535.607178,3274.576172 2494.383545,3271.535156 
	C2427.829102,3266.625732 2364.902588,3249.002441 2306.899658,3214.384033 
	C2273.200928,3194.271240 2244.439697,3168.810059 2218.677490,3139.996826 
	C2195.488037,3114.061279 2177.845947,3084.128906 2164.597168,3051.758057 
	C2147.721191,3010.523682 2140.377197,2967.673584 2139.784180,2923.148682 
	C2138.930176,2859.009521 2155.289062,2799.313232 2182.939209,2742.156982 
	C2197.197510,2712.683350 2213.856689,2684.656738 2234.063721,2658.832275 
	C2257.903564,2628.364990 2282.988525,2599.107178 2314.006104,2575.482178 
	C2327.235352,2565.406250 2340.070068,2554.810547 2353.031250,2544.385498 
	C2370.262207,2530.526367 2389.380127,2519.671387 2408.934814,2509.596680 
	C2442.118408,2492.500732 2475.347168,2475.427734 2511.389893,2464.884277 
	C2544.675293,2455.147217 2578.414551,2447.903076 2612.894531,2443.352295 
	C2632.854004,2440.717529 2652.667969,2440.224609 2672.634033,2439.976562 
	C2728.038574,2439.288818 2781.097900,2450.925293 2832.570068,2470.572998 
	C2881.208252,2489.139160 2923.888672,2517.164062 2960.145020,2554.402832 
	C2988.191162,2583.208740 3010.166504,2616.219482 3027.077148,2653.003906 
	C3044.956787,2691.895508 3051.754395,2732.932129 3055.982910,2776.712891 
M2815.457764,3105.580811 
	C2820.921875,3100.704346 2826.034424,3095.349609 2831.909912,3091.033203 
	C2859.601318,3070.688232 2881.884277,3044.866455 2902.221924,3017.823730 
	C2932.844971,2977.104004 2956.371338,2932.175537 2968.816895,2882.411377 
	C2974.122070,2861.197998 2977.512695,2839.327637 2979.638672,2817.547607 
	C2981.773193,2795.682129 2980.505615,2773.523926 2975.392090,2752.010254 
	C2970.936279,2733.264893 2967.014160,2714.067139 2959.650635,2696.405518 
	C2944.168945,2659.271484 2923.586670,2625.173096 2892.541748,2598.318359 
	C2881.994629,2589.194824 2872.661377,2578.825195 2860.832031,2571.004883 
	C2832.349609,2552.176025 2802.796631,2536.152344 2769.751709,2526.323242 
	C2729.843018,2514.452637 2689.240967,2508.576660 2647.804443,2508.233398 
	C2636.592041,2508.140625 2625.319824,2510.350586 2614.143311,2511.972168 
	C2597.697266,2514.358643 2581.137207,2516.373291 2564.939209,2519.961914 
	C2533.680664,2526.887207 2503.595947,2537.284668 2474.117676,2550.110107 
	C2438.965820,2565.404053 2407.585938,2586.279541 2376.967041,2608.816162 
	C2356.432861,2623.930176 2339.075928,2642.380615 2321.682373,2660.690186 
	C2308.440918,2674.629150 2296.195801,2689.671631 2284.796631,2705.171387 
	C2259.720703,2739.268066 2241.898682,2777.017090 2229.330322,2817.499268 
	C2214.196777,2866.243408 2211.519775,2915.535156 2220.685791,2965.475586 
	C2227.874023,3004.642090 2242.218018,3041.177002 2266.411377,3073.019531 
	C2277.218506,3087.243652 2290.866943,3099.273438 2302.660156,3112.792480 
	C2323.237549,3136.381348 2349.214111,3152.332764 2376.650391,3166.295898 
	C2426.289307,3191.558594 2479.702393,3201.114014 2534.702393,3204.020996 
	C2550.120117,3204.835938 2565.176270,3201.984375 2580.387451,3200.324219 
	C2606.955322,3197.424316 2633.102295,3192.429199 2658.662842,3184.920654 
	C2714.810059,3168.428223 2766.168213,3142.152832 2815.457764,3105.580811 
z"/>
<path fill="#F59D1B" opacity="1.000000" stroke="none" 
	d="
M2814.284668,3106.405762 
	C2766.168213,3142.152832 2714.810059,3168.428223 2658.662842,3184.920654 
	C2633.102295,3192.429199 2606.955322,3197.424316 2580.387451,3200.324219 
	C2565.176270,3201.984375 2550.120117,3204.835938 2534.702393,3204.020996 
	C2479.702393,3201.114014 2426.289307,3191.558594 2376.650391,3166.295898 
	C2349.214111,3152.332764 2323.237549,3136.381348 2302.660156,3112.792480 
	C2290.866943,3099.273438 2277.218506,3087.243652 2266.411377,3073.019531 
	C2242.218018,3041.177002 2227.874023,3004.642090 2220.685791,2965.475586 
	C2211.519775,2915.535156 2214.196777,2866.243408 2229.330322,2817.499268 
	C2241.898682,2777.017090 2259.720703,2739.268066 2284.796631,2705.171387 
	C2296.195801,2689.671631 2308.440918,2674.629150 2321.682373,2660.690186 
	C2339.075928,2642.380615 2356.432861,2623.930176 2376.967041,2608.816162 
	C2407.585938,2586.279541 2438.965820,2565.404053 2474.117676,2550.110107 
	C2503.595947,2537.284668 2533.680664,2526.887207 2564.939209,2519.961914 
	C2581.137207,2516.373291 2597.697266,2514.358643 2614.143311,2511.972168 
	C2625.319824,2510.350586 2636.592041,2508.140625 2647.804443,2508.233398 
	C2689.240967,2508.576660 2729.843018,2514.452637 2769.751709,2526.323242 
	C2802.796631,2536.152344 2832.349609,2552.176025 2860.832031,2571.004883 
	C2872.661377,2578.825195 2881.994629,2589.194824 2892.541748,2598.318359 
	C2923.586670,2625.173096 2944.168945,2659.271484 2959.650635,2696.405518 
	C2967.014160,2714.067139 2970.936279,2733.264893 2975.392090,2752.010254 
	C2980.505615,2773.523926 2981.773193,2795.682129 2979.638672,2817.547607 
	C2977.512695,2839.327637 2974.122070,2861.197998 2968.816895,2882.411377 
	C2956.371338,2932.175537 2932.844971,2977.104004 2902.221924,3017.823730 
	C2881.884277,3044.866455 2859.601318,3070.688232 2831.909912,3091.033203 
	C2826.034424,3095.349609 2820.921875,3100.704346 2814.284668,3106.405762 
M2339.215332,2990.413330 
	C2353.489746,3016.257324 2370.673340,3039.224365 2394.616943,3057.595703 
	C2415.015625,3073.247314 2436.861572,3084.923584 2460.516846,3094.371094 
	C2489.484619,3105.940186 2520.218262,3107.071533 2550.396240,3111.634766 
	C2552.350830,3111.930420 2554.409668,3111.907471 2556.378662,3111.678467 
	C2572.218262,3109.834229 2588.140869,3108.469238 2603.861084,3105.881592 
	C2634.233643,3100.882080 2663.168701,3091.274658 2691.358643,3078.745117 
	C2743.052734,3055.768799 2784.229980,3020.034180 2819.604736,2976.699707 
	C2835.345459,2957.416992 2846.501953,2935.538818 2857.364990,2913.386475 
	C2867.175049,2893.381348 2871.580322,2871.857910 2875.502686,2850.248291 
	C2877.633301,2838.509277 2879.726318,2826.440430 2879.233398,2814.629150 
	C2878.598633,2799.433105 2876.056885,2784.206055 2873.079346,2769.242432 
	C2867.523438,2741.322021 2853.687256,2716.972900 2838.177734,2693.541748 
	C2835.632324,2689.696289 2832.210938,2686.393311 2828.979736,2683.047119 
	C2823.427979,2677.298096 2817.568359,2671.843506 2812.082275,2666.034424 
	C2793.435303,2646.290283 2770.354980,2633.481689 2745.934326,2622.364258 
	C2712.488770,2607.137695 2676.481934,2604.979980 2640.898682,2600.534668 
	C2637.056152,2600.054932 2632.987793,2601.254639 2629.039307,2601.784912 
	C2624.426758,2602.404297 2619.849854,2603.547363 2615.224365,2603.768555 
	C2571.849121,2605.842529 2531.485596,2619.371338 2492.939209,2637.942139 
	C2461.022705,2653.319092 2432.836670,2674.837402 2407.137695,2699.197021 
	C2396.571777,2709.212158 2387.563965,2720.906982 2378.141846,2732.086182 
	C2348.743896,2766.966309 2330.405029,2807.235840 2321.348633,2851.709229 
	C2318.572266,2865.343506 2316.496826,2879.352051 2316.261475,2893.225830 
	C2315.699219,2926.353516 2323.388184,2957.891357 2339.215332,2990.413330 
z"/>
<path fill="#F8A717" opacity="1.000000" stroke="none" 
	d="
M2338.547852,2989.069824 
	C2323.388184,2957.891357 2315.699219,2926.353516 2316.261475,2893.225830 
	C2316.496826,2879.352051 2318.572266,2865.343506 2321.348633,2851.709229 
	C2330.405029,2807.235840 2348.743896,2766.966309 2378.141846,2732.086182 
	C2387.563965,2720.906982 2396.571777,2709.212158 2407.137695,2699.197021 
	C2432.836670,2674.837402 2461.022705,2653.319092 2492.939209,2637.942139 
	C2531.485596,2619.371338 2571.849121,2605.842529 2615.224365,2603.768555 
	C2619.849854,2603.547363 2624.426758,2602.404297 2629.039307,2601.784912 
	C2632.987793,2601.254639 2637.056152,2600.054932 2640.898682,2600.534668 
	C2676.481934,2604.979980 2712.488770,2607.137695 2745.934326,2622.364258 
	C2770.354980,2633.481689 2793.435303,2646.290283 2812.082275,2666.034424 
	C2817.568359,2671.843506 2823.427979,2677.298096 2828.979736,2683.047119 
	C2832.210938,2686.393311 2835.632324,2689.696289 2838.177734,2693.541748 
	C2853.687256,2716.972900 2867.523438,2741.322021 2873.079346,2769.242432 
	C2876.056885,2784.206055 2878.598633,2799.433105 2879.233398,2814.629150 
	C2879.726318,2826.440430 2877.633301,2838.509277 2875.502686,2850.248291 
	C2871.580322,2871.857910 2867.175049,2893.381348 2857.364990,2913.386475 
	C2846.501953,2935.538818 2835.345459,2957.416992 2819.604736,2976.699707 
	C2784.229980,3020.034180 2743.052734,3055.768799 2691.358643,3078.745117 
	C2663.168701,3091.274658 2634.233643,3100.882080 2603.861084,3105.881592 
	C2588.140869,3108.469238 2572.218262,3109.834229 2556.378662,3111.678467 
	C2554.409668,3111.907471 2552.350830,3111.930420 2550.396240,3111.634766 
	C2520.218262,3107.071533 2489.484619,3105.940186 2460.516846,3094.371094 
	C2436.861572,3084.923584 2415.015625,3073.247314 2394.616943,3057.595703 
	C2370.673340,3039.224365 2353.489746,3016.257324 2338.547852,2989.069824 
M2738.491699,2755.592529 
	C2734.252441,2750.482910 2730.720215,2744.500977 2725.661377,2740.403076 
	C2687.804932,2709.736816 2644.385010,2699.102295 2596.479248,2705.962646 
	C2572.450195,2709.404053 2550.027588,2717.790771 2528.911377,2729.586182 
	C2476.115967,2759.077637 2440.526123,2801.019043 2430.898193,2862.671875 
	C2426.590576,2890.258057 2431.524658,2915.703125 2444.290039,2939.738281 
	C2455.822266,2961.451416 2473.172119,2978.002930 2495.010254,2989.330566 
	C2530.614502,3007.798340 2568.298096,3013.170654 2607.464111,3004.321045 
	C2670.585449,2990.059082 2719.482910,2956.583740 2749.275635,2897.674072 
	C2755.650879,2885.068604 2761.269531,2872.254883 2762.958008,2858.246338 
	C2764.148438,2848.372070 2763.731689,2838.302246 2763.991699,2828.318848 
	C2764.678467,2801.951172 2756.708252,2778.492676 2738.491699,2755.592529 
z"/>
<path fill="#FBB313" opacity="1.000000" stroke="none" 
	d="
M2739.378418,2756.742432 
	C2756.708252,2778.492676 2764.678467,2801.951172 2763.991699,2828.318848 
	C2763.731689,2838.302246 2764.148438,2848.372070 2762.958008,2858.246338 
	C2761.269531,2872.254883 2755.650879,2885.068604 2749.275635,2897.674072 
	C2719.482910,2956.583740 2670.585449,2990.059082 2607.464111,3004.321045 
	C2568.298096,3013.170654 2530.614502,3007.798340 2495.010254,2989.330566 
	C2473.172119,2978.002930 2455.822266,2961.451416 2444.290039,2939.738281 
	C2431.524658,2915.703125 2426.590576,2890.258057 2430.898193,2862.671875 
	C2440.526123,2801.019043 2476.115967,2759.077637 2528.911377,2729.586182 
	C2550.027588,2717.790771 2572.450195,2709.404053 2596.479248,2705.962646 
	C2644.385010,2699.102295 2687.804932,2709.736816 2725.661377,2740.403076 
	C2730.720215,2744.500977 2734.252441,2750.482910 2739.378418,2756.742432 
z"/>
</svg>